<?xml version="1.0" standalone="no"?>
<!DOCTYPE svg PUBLIC "-//W3C//DTD SVG 20010904//EN"
 "http://www.w3.org/TR/2001/REC-SVG-20010904/DTD/svg10.dtd">
<svg version="1.0" xmlns="http://www.w3.org/2000/svg"
 width="700.000000pt" height="700.000000pt" viewBox="0 0 700.000000 700.000000"
 preserveAspectRatio="xMidYMid meet">
<metadata>
Created by potrace 1.14, written by Peter Selinger 2001-2017
</metadata>
<g transform="translate(0.000000,700.000000) scale(0.100000,-0.100000)"
fill="#000000" stroke="none">
<path d="M1447 6990 c-671 -79 -1223 -559 -1393 -1209 -55 -213 -54 -157 -54
-2272 0 -1316 3 -1981 11 -2047 29 -267 116 -508 262 -730 163 -248 370 -429
642 -562 189 -93 348 -139 560 -160 78 -8 685 -10 2100 -8 1828 4 1997 6 2075
21 460 93 832 338 1077 709 145 221 233 465 262 730 15 130 15 3945 1 4073
-38 337 -161 628 -376 886 -239 287 -566 476 -961 556 -82 16 -221 18 -2113
19 -1114 1 -2056 -2 -2093 -6z m4443 -1775 l0 -215 -770 0 -770 0 0 -463 0
-463 111 28 c340 85 750 44 1052 -107 248 -124 452 -340 553 -588 70 -173 97
-328 97 -557 -1 -384 -107 -672 -332 -898 -167 -169 -398 -285 -676 -341 -187
-37 -305 -42 -933 -39 l-602 3 0 914 c0 1014 3 1077 67 1689 14 139 23 255 19
259 -3 4 -10 2 -15 -3 -4 -5 -75 -202 -156 -439 -81 -236 -282 -800 -447
-1253 l-301 -822 -220 2 -221 3 -288 780 c-158 429 -361 995 -450 1258 -89
262 -165 477 -170 477 -12 0 -11 -15 22 -339 58 -581 60 -630 60 -1613 l0
-908 -345 0 -345 0 0 1920 0 1920 428 0 428 0 338 -932 c199 -551 380 -1068
441 -1263 72 -232 108 -331 118 -333 11 -2 20 11 30 45 120 397 242 759 514
1528 179 506 329 930 334 942 l9 23 1210 0 1210 0 0 -215z"/>
<path d="M4440 3694 c-47 -7 -93 -13 -102 -14 -17 0 -18 -46 -18 -824 l0 -823
113 -14 c157 -20 409 -17 521 5 349 68 589 278 671 586 23 87 31 317 15 418
-56 353 -315 600 -699 667 -105 19 -383 18 -501 -1z"/>
</g>
</svg>
